<svg xmlns="http://www.w3.org/2000/svg" xmlns:xlink="http://www.w3.org/1999/xlink" width="500" zoomAndPan="magnify" viewBox="0 0 375 374.999991" height="500" preserveAspectRatio="xMidYMid meet" version="1.0"><defs><g/><clipPath id="6a12a4443e"><rect x="0" width="223" y="0" height="85"/></clipPath><clipPath id="0720c4d3b4"><rect x="0" width="220" y="0" height="21"/></clipPath></defs><path fill="#144d37" d="M 136.871094 139.453125 C 135.875 139.453125 135.320312 139.453125 134.761719 139.453125 C 129.445312 139.453125 124.128906 139.507812 118.8125 139.4375 C 114.820312 139.382812 111.972656 141.125 110.082031 144.566406 C 104.484375 154.746094 98.894531 164.921875 93.304688 175.105469 C 87.589844 185.515625 81.882812 195.933594 76.152344 206.339844 C 75.875 206.84375 75.394531 207.242188 75.007812 207.691406 C 74.625 207.222656 74.167969 206.792969 73.878906 206.273438 C 67.191406 194.117188 60.515625 181.949219 53.84375 169.78125 C 52.398438 167.144531 50.160156 165.757812 47.183594 165.738281 C 41.554688 165.703125 35.921875 165.769531 30.289062 165.800781 C 29.792969 165.804688 29.296875 165.875 28.65625 165.925781 C 28.84375 166.410156 28.917969 166.710938 29.0625 166.972656 C 33.609375 175.152344 38.167969 183.324219 42.710938 191.503906 C 49.214844 203.222656 55.757812 214.921875 62.1875 226.683594 C 64.234375 230.421875 66.792969 233.519531 70.9375 234.871094 C 77.421875 236.980469 83.964844 234.136719 87.347656 227.921875 C 89.5625 223.859375 91.808594 219.816406 94.074219 215.785156 C 99.785156 205.609375 105.515625 195.445312 111.234375 185.273438 C 117.386719 174.320312 123.539062 163.367188 129.679688 152.410156 C 132.015625 148.246094 134.316406 144.058594 136.871094 139.457031 Z M 136.871094 139.453125 " fill-opacity="1" fill-rule="nonzero"/><path fill="#144d37" d="M 136.871094 139.453125 C 134.316406 144.058594 132.011719 148.242188 129.679688 152.40625 C 123.535156 163.367188 117.382812 174.320312 111.230469 185.273438 C 105.511719 195.445312 99.78125 205.609375 94.070312 215.785156 C 91.804688 219.816406 89.558594 223.859375 87.347656 227.921875 C 83.960938 234.136719 77.417969 236.980469 70.933594 234.867188 C 66.789062 233.515625 64.230469 230.421875 62.1875 226.683594 C 55.753906 214.921875 49.210938 203.222656 42.707031 191.503906 C 38.164062 183.320312 33.605469 175.148438 29.0625 166.96875 C 28.914062 166.710938 28.839844 166.410156 28.65625 165.925781 C 29.292969 165.875 29.789062 165.804688 30.285156 165.800781 C 35.917969 165.769531 41.550781 165.703125 47.179688 165.738281 C 50.15625 165.757812 52.398438 167.144531 53.84375 169.78125 C 60.511719 181.949219 67.1875 194.113281 73.878906 206.269531 C 74.164062 206.792969 74.625 207.21875 75.003906 207.691406 C 75.390625 207.242188 75.871094 206.84375 76.148438 206.335938 C 81.878906 195.933594 87.585938 185.515625 93.300781 175.101562 C 98.890625 164.921875 104.484375 154.742188 110.078125 144.5625 C 111.96875 141.125 114.816406 139.382812 118.808594 139.433594 C 124.125 139.503906 129.441406 139.453125 134.757812 139.453125 C 135.316406 139.453125 135.875 139.453125 136.867188 139.453125 Z M 136.871094 139.453125 " fill-opacity="1" fill-rule="nonzero"/><g transform="matrix(1, 0, 0, 1, 138, 135)"><g clip-path="url(#6a12a4443e)"><g fill="#032237" fill-opacity="1"><g transform="translate(0.861098, 66.427293)"><g><path d="M 5.75 -48.546875 L 17 -48.546875 L 17 0 L 5.75 0 Z M 5.75 -48.546875 "/></g></g></g><g fill="#032237" fill-opacity="1"><g transform="translate(23.613037, 66.427293)"><g><path d="M 27.671875 -37.875 C 32.296875 -37.875 36.03125 -36.484375 38.875 -33.703125 C 41.71875 -30.929688 43.140625 -26.816406 43.140625 -21.359375 L 43.140625 0 L 32.328125 0 L 32.328125 -19.703125 C 32.328125 -22.660156 31.675781 -24.863281 30.375 -26.3125 C 29.082031 -27.769531 27.210938 -28.5 24.765625 -28.5 C 22.035156 -28.5 19.859375 -27.65625 18.234375 -25.96875 C 16.617188 -24.28125 15.8125 -21.773438 15.8125 -18.453125 L 15.8125 0 L 5 0 L 5 -37.3125 L 15.328125 -37.3125 L 15.328125 -32.953125 C 16.765625 -34.515625 18.546875 -35.722656 20.671875 -36.578125 C 22.796875 -37.441406 25.128906 -37.875 27.671875 -37.875 Z M 27.671875 -37.875 "/></g></g></g><g fill="#032237" fill-opacity="1"><g transform="translate(70.851044, 66.427293)"><g><path d="M 42.03125 -37.3125 L 26.28125 0 L 15.125 0 L -0.5625 -37.3125 L 10.609375 -37.3125 L 20.953125 -11.9375 L 31.625 -37.3125 Z M 42.03125 -37.3125 "/></g></g></g><g fill="#032237" fill-opacity="1"><g transform="translate(111.291213, 66.427293)"><g><path d="M 41.546875 -18.515625 C 41.546875 -18.378906 41.476562 -17.410156 41.34375 -15.609375 L 13.109375 -15.609375 C 13.617188 -13.296875 14.820312 -11.46875 16.71875 -10.125 C 18.613281 -8.78125 20.972656 -8.109375 23.796875 -8.109375 C 25.734375 -8.109375 27.453125 -8.394531 28.953125 -8.96875 C 30.460938 -9.550781 31.863281 -10.46875 33.15625 -11.71875 L 38.90625 -5.484375 C 35.394531 -1.453125 30.265625 0.5625 23.515625 0.5625 C 19.304688 0.5625 15.582031 -0.257812 12.34375 -1.90625 C 9.101562 -3.550781 6.601562 -5.828125 4.84375 -8.734375 C 3.09375 -11.648438 2.21875 -14.957031 2.21875 -18.65625 C 2.21875 -22.3125 3.082031 -25.609375 4.8125 -28.546875 C 6.550781 -31.484375 8.929688 -33.769531 11.953125 -35.40625 C 14.984375 -37.050781 18.375 -37.875 22.125 -37.875 C 25.78125 -37.875 29.085938 -37.085938 32.046875 -35.515625 C 35.003906 -33.941406 37.328125 -31.6875 39.015625 -28.75 C 40.703125 -25.8125 41.546875 -22.398438 41.546875 -18.515625 Z M 22.1875 -29.6875 C 19.738281 -29.6875 17.679688 -28.992188 16.015625 -27.609375 C 14.359375 -26.222656 13.34375 -24.328125 12.96875 -21.921875 L 31.34375 -21.921875 C 30.976562 -24.273438 29.960938 -26.15625 28.296875 -27.5625 C 26.628906 -28.976562 24.59375 -29.6875 22.1875 -29.6875 Z M 22.1875 -29.6875 "/></g></g></g><g fill="#032237" fill-opacity="1"><g transform="translate(155.060954, 66.427293)"><g><path d="M 17.546875 0.5625 C 14.453125 0.5625 11.421875 0.179688 8.453125 -0.578125 C 5.492188 -1.347656 3.140625 -2.3125 1.390625 -3.46875 L 5 -11.234375 C 6.65625 -10.171875 8.660156 -9.300781 11.015625 -8.625 C 13.378906 -7.957031 15.695312 -7.625 17.96875 -7.625 C 22.539062 -7.625 24.828125 -8.757812 24.828125 -11.03125 C 24.828125 -12.09375 24.203125 -12.851562 22.953125 -13.3125 C 21.703125 -13.78125 19.785156 -14.175781 17.203125 -14.5 C 14.148438 -14.957031 11.628906 -15.488281 9.640625 -16.09375 C 7.648438 -16.695312 5.925781 -17.757812 4.46875 -19.28125 C 3.007812 -20.8125 2.28125 -22.984375 2.28125 -25.796875 C 2.28125 -28.160156 2.960938 -30.253906 4.328125 -32.078125 C 5.691406 -33.898438 7.679688 -35.320312 10.296875 -36.34375 C 12.910156 -37.363281 16 -37.875 19.5625 -37.875 C 22.195312 -37.875 24.816406 -37.582031 27.421875 -37 C 30.035156 -36.425781 32.203125 -35.628906 33.921875 -34.609375 L 30.3125 -26.90625 C 27.03125 -28.757812 23.445312 -29.6875 19.5625 -29.6875 C 17.25 -29.6875 15.515625 -29.363281 14.359375 -28.71875 C 13.203125 -28.070312 12.625 -27.238281 12.625 -26.21875 C 12.625 -25.0625 13.25 -24.25 14.5 -23.78125 C 15.75 -23.320312 17.738281 -22.882812 20.46875 -22.46875 C 23.507812 -21.957031 26 -21.410156 27.9375 -20.828125 C 29.882812 -20.253906 31.578125 -19.203125 33.015625 -17.671875 C 34.453125 -16.148438 35.171875 -14.03125 35.171875 -11.3125 C 35.171875 -9 34.472656 -6.9375 33.078125 -5.125 C 31.691406 -3.320312 29.671875 -1.921875 27.015625 -0.921875 C 24.359375 0.0664062 21.203125 0.5625 17.546875 0.5625 Z M 17.546875 0.5625 "/></g></g></g><g fill="#032237" fill-opacity="1"><g transform="translate(191.894122, 66.427293)"><g><path d="M 29.0625 -1.796875 C 28 -1.015625 26.691406 -0.425781 25.140625 -0.03125 C 23.585938 0.363281 21.957031 0.5625 20.25 0.5625 C 15.8125 0.5625 12.378906 -0.570312 9.953125 -2.84375 C 7.523438 -5.113281 6.3125 -8.441406 6.3125 -12.828125 L 6.3125 -28.15625 L 0.5625 -28.15625 L 0.5625 -36.484375 L 6.3125 -36.484375 L 6.3125 -45.5625 L 17.125 -45.5625 L 17.125 -36.484375 L 26.421875 -36.484375 L 26.421875 -28.15625 L 17.125 -28.15625 L 17.125 -12.96875 C 17.125 -11.394531 17.53125 -10.179688 18.34375 -9.328125 C 19.15625 -8.472656 20.300781 -8.046875 21.78125 -8.046875 C 23.488281 -8.046875 24.945312 -8.507812 26.15625 -9.4375 Z M 29.0625 -1.796875 "/></g></g></g></g></g><g transform="matrix(1, 0, 0, 1, 144, 208)"><g clip-path="url(#0720c4d3b4)"><g fill="#032237" fill-opacity="1"><g transform="translate(0.898885, 15.56467)"><g><path d="M 9.3125 -9.9375 L 5.5625 0 L 4.0625 0 L 0.3125 -9.9375 L 1.703125 -9.9375 L 4.8125 -1.375 L 7.9375 -9.9375 Z M 9.3125 -9.9375 "/></g></g></g><g fill="#032237" fill-opacity="1"><g transform="translate(11.3358, 15.56467)"><g><path d="M 6.96875 -2.203125 L 2.640625 -2.203125 L 1.84375 0 L 0.46875 0 L 4.0625 -9.875 L 5.5625 -9.875 L 9.140625 0 L 7.765625 0 Z M 6.59375 -3.265625 L 4.796875 -8.28125 L 3 -3.265625 Z M 6.59375 -3.265625 "/></g></g></g><g fill="#032237" fill-opacity="1"><g transform="translate(21.744228, 15.56467)"><g><path d="M 2.390625 -1.046875 L 5.875 -1.046875 L 5.875 0 L 1.09375 0 L 1.09375 -9.9375 L 2.390625 -9.9375 Z M 2.390625 -1.046875 "/></g></g></g><g fill="#032237" fill-opacity="1"><g transform="translate(28.707163, 15.56467)"><g><path d="M 2.359375 -9.9375 L 2.359375 -3.640625 C 2.359375 -2.765625 2.570312 -2.113281 3 -1.6875 C 3.4375 -1.257812 4.039062 -1.046875 4.8125 -1.046875 C 5.570312 -1.046875 6.164062 -1.257812 6.59375 -1.6875 C 7.03125 -2.113281 7.25 -2.765625 7.25 -3.640625 L 7.25 -9.9375 L 8.546875 -9.9375 L 8.546875 -3.65625 C 8.546875 -2.832031 8.378906 -2.140625 8.046875 -1.578125 C 7.710938 -1.015625 7.265625 -0.59375 6.703125 -0.3125 C 6.140625 -0.0390625 5.503906 0.09375 4.796875 0.09375 C 4.097656 0.09375 3.460938 -0.0390625 2.890625 -0.3125 C 2.328125 -0.59375 1.878906 -1.015625 1.546875 -1.578125 C 1.222656 -2.140625 1.0625 -2.832031 1.0625 -3.65625 L 1.0625 -9.9375 Z M 2.359375 -9.9375 "/></g></g></g><g fill="#032237" fill-opacity="1"><g transform="translate(39.129834, 15.56467)"><g><path d="M 2.390625 -8.875 L 2.390625 -5.5625 L 6.015625 -5.5625 L 6.015625 -4.484375 L 2.390625 -4.484375 L 2.390625 -1.0625 L 6.4375 -1.0625 L 6.4375 0 L 1.09375 0 L 1.09375 -9.953125 L 6.4375 -9.953125 L 6.4375 -8.875 Z M 2.390625 -8.875 "/></g></g></g><g fill="#032237" fill-opacity="1"><g transform="translate(47.246019, 15.56467)"><g/></g></g><g fill="#032237" fill-opacity="1"><g transform="translate(51.859752, 15.56467)"><g><path d="M 2.390625 -9.9375 L 2.390625 0 L 1.09375 0 L 1.09375 -9.9375 Z M 2.390625 -9.9375 "/></g></g></g><g fill="#032237" fill-opacity="1"><g transform="translate(56.174496, 15.56467)"><g><path d="M 8.90625 0 L 7.609375 0 L 2.390625 -7.90625 L 2.390625 0 L 1.09375 0 L 1.09375 -9.953125 L 2.390625 -9.953125 L 7.609375 -2.046875 L 7.609375 -9.953125 L 8.90625 -9.953125 Z M 8.90625 0 "/></g></g></g><g fill="#032237" fill-opacity="1"><g transform="translate(66.995814, 15.56467)"><g><path d="M 9.3125 -9.9375 L 5.5625 0 L 4.0625 0 L 0.3125 -9.9375 L 1.703125 -9.9375 L 4.8125 -1.375 L 7.9375 -9.9375 Z M 9.3125 -9.9375 "/></g></g></g><g fill="#032237" fill-opacity="1"><g transform="translate(77.432728, 15.56467)"><g><path d="M 2.390625 -8.875 L 2.390625 -5.5625 L 6.015625 -5.5625 L 6.015625 -4.484375 L 2.390625 -4.484375 L 2.390625 -1.0625 L 6.4375 -1.0625 L 6.4375 0 L 1.09375 0 L 1.09375 -9.953125 L 6.4375 -9.953125 L 6.4375 -8.875 Z M 2.390625 -8.875 "/></g></g></g><g fill="#032237" fill-opacity="1"><g transform="translate(85.548913, 15.56467)"><g><path d="M 4.25 0.09375 C 3.59375 0.09375 3.003906 -0.0195312 2.484375 -0.25 C 1.960938 -0.476562 1.554688 -0.800781 1.265625 -1.21875 C 0.972656 -1.632812 0.820312 -2.113281 0.8125 -2.65625 L 2.1875 -2.65625 C 2.238281 -2.1875 2.429688 -1.789062 2.765625 -1.46875 C 3.109375 -1.15625 3.601562 -1 4.25 -1 C 4.863281 -1 5.347656 -1.148438 5.703125 -1.453125 C 6.054688 -1.765625 6.234375 -2.164062 6.234375 -2.65625 C 6.234375 -3.03125 6.128906 -3.335938 5.921875 -3.578125 C 5.710938 -3.816406 5.453125 -3.992188 5.140625 -4.109375 C 4.828125 -4.234375 4.40625 -4.367188 3.875 -4.515625 C 3.21875 -4.691406 2.691406 -4.863281 2.296875 -5.03125 C 1.898438 -5.195312 1.5625 -5.460938 1.28125 -5.828125 C 1.007812 -6.203125 0.875 -6.695312 0.875 -7.3125 C 0.875 -7.851562 1.007812 -8.332031 1.28125 -8.75 C 1.5625 -9.164062 1.945312 -9.488281 2.4375 -9.71875 C 2.9375 -9.945312 3.507812 -10.0625 4.15625 -10.0625 C 5.09375 -10.0625 5.859375 -9.828125 6.453125 -9.359375 C 7.046875 -8.890625 7.378906 -8.273438 7.453125 -7.515625 L 6.03125 -7.515625 C 5.976562 -7.890625 5.773438 -8.222656 5.421875 -8.515625 C 5.078125 -8.804688 4.613281 -8.953125 4.03125 -8.953125 C 3.488281 -8.953125 3.046875 -8.8125 2.703125 -8.53125 C 2.359375 -8.25 2.1875 -7.859375 2.1875 -7.359375 C 2.1875 -6.992188 2.289062 -6.695312 2.5 -6.46875 C 2.707031 -6.238281 2.957031 -6.0625 3.25 -5.9375 C 3.550781 -5.820312 3.972656 -5.691406 4.515625 -5.546875 C 5.171875 -5.359375 5.695312 -5.175781 6.09375 -5 C 6.5 -4.832031 6.84375 -4.5625 7.125 -4.1875 C 7.40625 -3.820312 7.546875 -3.328125 7.546875 -2.703125 C 7.546875 -2.222656 7.414062 -1.769531 7.15625 -1.34375 C 6.90625 -0.914062 6.523438 -0.566406 6.015625 -0.296875 C 5.515625 -0.0351562 4.925781 0.09375 4.25 0.09375 Z M 4.25 0.09375 "/></g></g></g><g fill="#032237" fill-opacity="1"><g transform="translate(94.718676, 15.56467)"><g><path d="M 7.203125 -9.9375 L 7.203125 -8.875 L 4.5 -8.875 L 4.5 0 L 3.203125 0 L 3.203125 -8.875 L 0.484375 -8.875 L 0.484375 -9.9375 Z M 7.203125 -9.9375 "/></g></g></g><g fill="#032237" fill-opacity="1"><g transform="translate(103.233506, 15.56467)"><g><path d="M 2.390625 -9.9375 L 2.390625 0 L 1.09375 0 L 1.09375 -9.9375 Z M 2.390625 -9.9375 "/></g></g></g><g fill="#032237" fill-opacity="1"><g transform="translate(107.548251, 15.56467)"><g><path d="M 8.90625 0 L 7.609375 0 L 2.390625 -7.90625 L 2.390625 0 L 1.09375 0 L 1.09375 -9.953125 L 2.390625 -9.953125 L 7.609375 -2.046875 L 7.609375 -9.953125 L 8.90625 -9.953125 Z M 8.90625 0 "/></g></g></g><g fill="#032237" fill-opacity="1"><g transform="translate(118.369569, 15.56467)"><g><path d="M 8.625 -7.046875 C 8.34375 -7.628906 7.941406 -8.078125 7.421875 -8.390625 C 6.898438 -8.710938 6.289062 -8.875 5.59375 -8.875 C 4.90625 -8.875 4.28125 -8.710938 3.71875 -8.390625 C 3.164062 -8.078125 2.726562 -7.625 2.40625 -7.03125 C 2.09375 -6.4375 1.9375 -5.75 1.9375 -4.96875 C 1.9375 -4.195312 2.09375 -3.515625 2.40625 -2.921875 C 2.726562 -2.328125 3.164062 -1.867188 3.71875 -1.546875 C 4.28125 -1.234375 4.90625 -1.078125 5.59375 -1.078125 C 6.5625 -1.078125 7.359375 -1.367188 7.984375 -1.953125 C 8.617188 -2.535156 8.988281 -3.316406 9.09375 -4.296875 L 5.125 -4.296875 L 5.125 -5.359375 L 10.46875 -5.359375 L 10.46875 -4.359375 C 10.394531 -3.546875 10.140625 -2.796875 9.703125 -2.109375 C 9.265625 -1.429688 8.6875 -0.894531 7.96875 -0.5 C 7.257812 -0.113281 6.46875 0.078125 5.59375 0.078125 C 4.675781 0.078125 3.835938 -0.132812 3.078125 -0.5625 C 2.316406 -1 1.710938 -1.597656 1.265625 -2.359375 C 0.828125 -3.128906 0.609375 -4 0.609375 -4.96875 C 0.609375 -5.9375 0.828125 -6.804688 1.265625 -7.578125 C 1.710938 -8.359375 2.316406 -8.960938 3.078125 -9.390625 C 3.835938 -9.828125 4.675781 -10.046875 5.59375 -10.046875 C 6.65625 -10.046875 7.59375 -9.785156 8.40625 -9.265625 C 9.21875 -8.742188 9.804688 -8.003906 10.171875 -7.046875 Z M 8.625 -7.046875 "/></g></g></g><g fill="#032237" fill-opacity="1"><g transform="translate(130.258707, 15.56467)"><g/></g></g><g fill="#032237" fill-opacity="1"><g transform="translate(134.87244, 15.56467)"><g><path d="M 11.171875 -9.859375 L 11.171875 0 L 9.875 0 L 9.875 -7.359375 L 6.59375 0 L 5.6875 0 L 2.390625 -7.375 L 2.390625 0 L 1.09375 0 L 1.09375 -9.859375 L 2.5 -9.859375 L 6.140625 -1.703125 L 9.796875 -9.859375 Z M 11.171875 -9.859375 "/></g></g></g><g fill="#032237" fill-opacity="1"><g transform="translate(147.943301, 15.56467)"><g><path d="M 6.96875 -2.203125 L 2.640625 -2.203125 L 1.84375 0 L 0.46875 0 L 4.0625 -9.875 L 5.5625 -9.875 L 9.140625 0 L 7.765625 0 Z M 6.59375 -3.265625 L 4.796875 -8.28125 L 3 -3.265625 Z M 6.59375 -3.265625 "/></g></g></g><g fill="#032237" fill-opacity="1"><g transform="translate(158.35173, 15.56467)"><g><path d="M 4.1875 -9.9375 C 5.269531 -9.9375 6.207031 -9.734375 7 -9.328125 C 7.789062 -8.921875 8.398438 -8.34375 8.828125 -7.59375 C 9.253906 -6.84375 9.46875 -5.957031 9.46875 -4.9375 C 9.46875 -3.925781 9.253906 -3.046875 8.828125 -2.296875 C 8.398438 -1.554688 7.789062 -0.988281 7 -0.59375 C 6.207031 -0.195312 5.269531 0 4.1875 0 L 1.09375 0 L 1.09375 -9.9375 Z M 4.1875 -1.0625 C 5.46875 -1.0625 6.445312 -1.398438 7.125 -2.078125 C 7.800781 -2.765625 8.140625 -3.71875 8.140625 -4.9375 C 8.140625 -6.175781 7.796875 -7.140625 7.109375 -7.828125 C 6.429688 -8.523438 5.457031 -8.875 4.1875 -8.875 L 2.390625 -8.875 L 2.390625 -1.0625 Z M 4.1875 -1.0625 "/></g></g></g><g fill="#032237" fill-opacity="1"><g transform="translate(169.230004, 15.56467)"><g><path d="M 2.390625 -8.875 L 2.390625 -5.5625 L 6.015625 -5.5625 L 6.015625 -4.484375 L 2.390625 -4.484375 L 2.390625 -1.0625 L 6.4375 -1.0625 L 6.4375 0 L 1.09375 0 L 1.09375 -9.953125 L 6.4375 -9.953125 L 6.4375 -8.875 Z M 2.390625 -8.875 "/></g></g></g><g fill="#032237" fill-opacity="1"><g transform="translate(177.346189, 15.56467)"><g/></g></g><g fill="#032237" fill-opacity="1"><g transform="translate(181.959921, 15.56467)"><g><path d="M 2.390625 -8.875 L 2.390625 -5.5625 L 6.015625 -5.5625 L 6.015625 -4.484375 L 2.390625 -4.484375 L 2.390625 -1.0625 L 6.4375 -1.0625 L 6.4375 0 L 1.09375 0 L 1.09375 -9.953125 L 6.4375 -9.953125 L 6.4375 -8.875 Z M 2.390625 -8.875 "/></g></g></g><g fill="#032237" fill-opacity="1"><g transform="translate(190.076106, 15.56467)"><g><path d="M 6.96875 -2.203125 L 2.640625 -2.203125 L 1.84375 0 L 0.46875 0 L 4.0625 -9.875 L 5.5625 -9.875 L 9.140625 0 L 7.765625 0 Z M 6.59375 -3.265625 L 4.796875 -8.28125 L 3 -3.265625 Z M 6.59375 -3.265625 "/></g></g></g><g fill="#032237" fill-opacity="1"><g transform="translate(200.484535, 15.56467)"><g><path d="M 4.25 0.09375 C 3.59375 0.09375 3.003906 -0.0195312 2.484375 -0.25 C 1.960938 -0.476562 1.554688 -0.800781 1.265625 -1.21875 C 0.972656 -1.632812 0.820312 -2.113281 0.8125 -2.65625 L 2.1875 -2.65625 C 2.238281 -2.1875 2.429688 -1.789062 2.765625 -1.46875 C 3.109375 -1.15625 3.601562 -1 4.25 -1 C 4.863281 -1 5.347656 -1.148438 5.703125 -1.453125 C 6.054688 -1.765625 6.234375 -2.164062 6.234375 -2.65625 C 6.234375 -3.03125 6.128906 -3.335938 5.921875 -3.578125 C 5.710938 -3.816406 5.453125 -3.992188 5.140625 -4.109375 C 4.828125 -4.234375 4.40625 -4.367188 3.875 -4.515625 C 3.21875 -4.691406 2.691406 -4.863281 2.296875 -5.03125 C 1.898438 -5.195312 1.5625 -5.460938 1.28125 -5.828125 C 1.007812 -6.203125 0.875 -6.695312 0.875 -7.3125 C 0.875 -7.851562 1.007812 -8.332031 1.28125 -8.75 C 1.5625 -9.164062 1.945312 -9.488281 2.4375 -9.71875 C 2.9375 -9.945312 3.507812 -10.0625 4.15625 -10.0625 C 5.09375 -10.0625 5.859375 -9.828125 6.453125 -9.359375 C 7.046875 -8.890625 7.378906 -8.273438 7.453125 -7.515625 L 6.03125 -7.515625 C 5.976562 -7.890625 5.773438 -8.222656 5.421875 -8.515625 C 5.078125 -8.804688 4.613281 -8.953125 4.03125 -8.953125 C 3.488281 -8.953125 3.046875 -8.8125 2.703125 -8.53125 C 2.359375 -8.25 2.1875 -7.859375 2.1875 -7.359375 C 2.1875 -6.992188 2.289062 -6.695312 2.5 -6.46875 C 2.707031 -6.238281 2.957031 -6.0625 3.25 -5.9375 C 3.550781 -5.820312 3.972656 -5.691406 4.515625 -5.546875 C 5.171875 -5.359375 5.695312 -5.175781 6.09375 -5 C 6.5 -4.832031 6.84375 -4.5625 7.125 -4.1875 C 7.40625 -3.820312 7.546875 -3.328125 7.546875 -2.703125 C 7.546875 -2.222656 7.414062 -1.769531 7.15625 -1.34375 C 6.90625 -0.914062 6.523438 -0.566406 6.015625 -0.296875 C 5.515625 -0.0351562 4.925781 0.09375 4.25 0.09375 Z M 4.25 0.09375 "/></g></g></g><g fill="#032237" fill-opacity="1"><g transform="translate(209.654298, 15.56467)"><g><path d="M 8.046875 -9.9375 L 4.8125 -3.75 L 4.8125 0 L 3.515625 0 L 3.515625 -3.75 L 0.265625 -9.9375 L 1.703125 -9.9375 L 4.15625 -4.90625 L 6.609375 -9.9375 Z M 8.046875 -9.9375 "/></g></g></g></g></g></svg>